<svg xmlns="http://www.w3.org/2000/svg" version="1.1" xmlns:xlink="http://www.w3.org/1999/xlink" width="1000" height="1000"><metadata><rdf:RDF xmlns:rdf="http://www.w3.org/1999/02/22-rdf-syntax-ns#" xmlns:dc="http://purl.org/dc/elements/1.1/"><rdf:Description><dc:creator>RealFaviconGenerator</dc:creator><dc:source>https://realfavicongenerator.net</dc:source></rdf:Description></rdf:RDF></metadata><g clip-path="url(#SvgjsClipPath1019)"><rect width="1000" height="1000" fill="#9a2d50"></rect><g transform="matrix(0.49504950495049505,0,0,0.49504950495049505,150.24752475247527,150)"><svg xmlns="http://www.w3.org/2000/svg" width="1413" height="1414" viewBox="0 0 1413 1414" fill="none"><path d="M1152.07 368.393C1148.46 363.615 1142.89 360.674 1136.89 360.246C1130.89 359.633 1125.01 362.022 1120.79 366.249L1080.38 406.738C1063.49 392.282 1040.77 383.829 1013.16 382.849C991.857 382.175 968.531 386.524 945.941 393.691L1046.96 292.375C1051.24 288.087 1053.45 282.268 1052.96 276.326C1052.59 270.323 1049.65 264.81 1044.81 261.135C946.185 185.851 829.188 146.097 706.502 146.097C397.389 146.097 146.014 397.612 146.014 706.898C146.014 829.655 185.808 946.715 260.987 1045.4C264.599 1050.18 270.171 1053.12 276.17 1053.55C276.66 1053.61 277.088 1053.61 277.517 1053.61C283.027 1053.61 288.353 1051.46 292.272 1047.54L410.674 929.013C435.285 952.596 465.407 972.259 499.385 988.124L366.106 1121.48C361.82 1125.77 359.616 1131.65 360.106 1137.59C360.473 1143.59 363.412 1149.1 368.249 1152.78C466.938 1228 583.874 1267.82 706.56 1267.82C1015.67 1267.82 1267.05 1016.24 1267.05 707.015C1266.99 584.137 1227.25 467.076 1152.07 368.393ZM1057.12 441.286C1069 454.089 1070.96 473.324 1070.47 487.289C1069.36 519.816 1053.32 559.327 1032.26 585.851C1003 531.885 961.919 487.475 912.514 454.763C939.819 436.264 979.797 423.278 1011.69 424.502C1025.83 424.992 1045.06 428.239 1057.12 441.286ZM279.971 1000.8C219.484 913.635 187.588 812.498 187.588 706.899C187.588 420.587 420.36 187.701 706.497 187.701C812.043 187.701 913.189 219.553 1000.3 280.197L856.427 424.576C810.449 404.607 760.064 392.785 706.434 392.539C646.13 392.784 589.501 406.873 539.175 431.865C504.768 401.91 446.792 381.452 399.835 382.983C368.306 383.963 342.532 394.376 325.45 412.875C308.307 431.191 299.86 457.407 300.839 488.709C302.492 537.836 328.267 596.335 361.51 627.76C358.143 636.274 354.041 644.299 351.225 653.12C321.9 745.371 331.878 828.987 380.183 894.897C380.979 895.938 381.959 896.796 382.755 897.837L279.971 1000.8ZM380.681 585.917C359.744 559.76 343.58 520.067 342.479 487.355C341.989 473.389 343.948 454.093 355.947 441.23C367.886 428.305 387.171 424.996 401.251 424.507C433.085 423.343 473.309 436.391 500.43 454.768C450.963 487.478 409.884 531.889 380.681 585.917ZM413.741 870.394C373.152 814.896 365.438 746.045 390.906 665.861C435.352 525.769 559.262 434.81 706.32 434.136C853.557 434.809 977.473 525.712 1021.92 665.861C1047.45 746.106 1039.68 814.896 999.086 870.394C945.333 943.779 833.425 989.353 706.868 989.353H706.317H705.766C579.405 989.291 467.436 943.716 413.741 870.394ZM706.508 1226.11C600.961 1226.11 499.878 1194.26 412.769 1133.68L541.518 1004.86C591.047 1021.52 646.573 1030.95 706.019 1030.95H707.059C848.788 1030.95 970.549 980.111 1032.82 895.027C1081.06 829.116 1091.04 745.501 1061.78 653.25C1058.96 644.306 1054.8 636.282 1051.43 627.767C1084.98 595.73 1110.51 537.66 1112.16 488.778C1112.77 471.136 1110.02 455.332 1104.69 441.427L1133.04 413.005C1193.52 500.172 1225.42 601.308 1225.42 706.907C1225.42 993.22 992.644 1226.11 706.508 1226.11Z" fill="white"></path><path d="M1208.64 210.229C1207.84 209.065 1206.92 207.84 1206.07 207.044C1205.21 206.247 1204.04 205.328 1202.88 204.471C1069.54 72.6492 893.345 0 706.495 0C316.95 0 0 317.127 0 706.89C0 893.844 72.4864 1070.14 204.357 1203.55C205.153 1204.72 206.071 1205.94 206.928 1206.74C207.785 1207.54 208.948 1208.45 210.111 1209.31C343.452 1341.13 519.585 1413.78 706.498 1413.78C1096.04 1413.78 1412.99 1096.66 1412.99 706.893C1412.99 519.938 1340.45 343.647 1208.64 210.229ZM706.498 1372.13C530.054 1372.13 363.72 1303.34 238.15 1178.43C237.721 1178.01 237.109 1177.52 236.558 1177.09C236.068 1176.47 235.64 1175.98 235.211 1175.49C110.381 1049.86 41.6218 883.427 41.6218 706.885C41.6218 340.079 339.889 41.645 706.49 41.645C882.934 41.645 1049.27 110.435 1174.84 235.343C1175.27 235.771 1175.88 236.262 1176.43 236.69C1176.92 237.303 1177.35 237.793 1177.78 238.222C1302.61 363.857 1371.37 530.352 1371.37 706.831C1371.37 1073.7 1073.1 1372.13 706.498 1372.13Z" fill="white"></path><path d="M858.147 818.812C858.147 753.023 790.131 699.485 706.501 699.485C622.871 699.485 554.855 753.023 554.855 818.812C554.855 884.6 622.871 938.138 706.501 938.138C790.131 938.138 858.147 884.661 858.147 818.812ZM596.491 818.812C596.491 775.993 645.835 741.14 706.506 741.14C767.115 741.14 816.521 775.995 816.521 818.812C816.521 861.628 767.115 896.483 706.506 896.483C645.896 896.483 596.491 861.628 596.491 818.812Z" fill="white"></path><path d="M664.871 791.98C653.423 791.98 644.056 801.291 644.056 812.807V824.874C644.056 836.329 653.362 845.701 664.871 845.701C676.381 845.701 685.686 836.39 685.686 824.874V812.807C685.686 801.352 676.381 791.98 664.871 791.98Z" fill="white"></path><path d="M748.125 845.705C759.573 845.705 768.94 836.394 768.94 824.879V812.811C768.94 801.357 759.634 791.985 748.125 791.985C736.615 791.985 727.31 801.296 727.31 812.811V824.879C727.31 836.395 736.615 845.705 748.125 845.705Z" fill="white"></path><path d="M561.102 625.302V639.146C561.102 650.601 570.408 659.973 581.917 659.973C593.426 659.973 602.732 650.662 602.732 639.146V625.302C602.732 613.847 593.426 604.476 581.917 604.476C570.408 604.476 561.102 613.848 561.102 625.302Z" fill="white"></path><path d="M831.081 659.974C842.529 659.974 851.896 650.663 851.896 639.147V625.303C851.896 613.849 842.59 604.477 831.081 604.477C819.571 604.477 810.266 613.788 810.266 625.303V639.147C810.266 650.663 819.633 659.974 831.081 659.974Z" fill="white"></path></svg></g></g><defs><clipPath id="SvgjsClipPath1019"><rect width="1000" height="1000" x="0" y="0" rx="350" ry="350"></rect></clipPath></defs></svg>